# xmcd
#
# Track frame offsets:
#	150
#	16341
#	31405
#	46861
#	63998
#	85470
#	99499
#	113302
#	137084
#	159309
#	180568
#	205651
#	227794
#	249380
#	276713
#	294530
#	315903
#
# Disc length: 4421 seconds
#
# Revision: 1
# Processed by: cddbd v1.5.2PL0 Copyright (c) Steve Scherf et al.
# Submitted via: EasyCDDAExtractor 16.0.8.2
#
DISCID=df114311
DTITLE=Κλαδάκης Γιάννης - Ο βοσκός κι ο βασιλιάς-Τραγ. Ορεινής Ρόδου
DYEAR=1900
DGENRE=Παραδοσιακή
TTITLE0=Κλαδάκης Γιάννης - Κρητικός
TTITLE1=Κλαδάκης Γιάννης - Σκοπός του Διακολία
TTITLE2=Κλαδάκης Γιάννης - Του βασιλιά ο μοναχογιός
TTITLE3=Κλαδάκης Γιάννης - Λιβισιανός σκοπός
TTITLE4=Κλαδάκης Γιάννης - Κοντραμπατζήδες
TTITLE5=Κλαδάκης Γιάννης - Σκοπός της νύχτας
TTITLE6=Κλαδάκης Γιάννης - Μιά φουρτουνιασμένη μέρα
TTITLE7=Κλαδάκης Γιάννης - Ο βοσκός κι ο βασιλιάς
TTITLE8=Κλαδάκης Γιάννης - Κασιωτοπούλα
TTITLE9=Κλαδάκης Γιάννης - Τραγουδιστός σκοπός
TTITLE10=Κλαδάκης Γιάννης - Ο Γιάννης ο Πλατόγιαννος
TTITLE11=Κλαδάκης Γιάννης - Του παππά
TTITLE12=Κλαδάκης Γιάννης - Της Θεονίτσας
TTITLE13=Κλαδάκης Γιάννης - Ο Κωνσταντίνος ο μικρός
TTITLE14=Κλαδάκης Γιάννης - Τα βάσανα
TTITLE15=Κλαδάκης Γιάννης - Κάνακα
TTITLE16=Άνευ ερμηνευτού - Σούστα Ασκληπιού [οργανικό]
EXTD=
EXTT0=
EXTT1=
EXTT2=
EXTT3=
EXTT4=
EXTT5=
EXTT6=
EXTT7=
EXTT8=
EXTT9=
EXTT10=
EXTT11=
EXTT12=
EXTT13=
EXTT14=
EXTT15=
EXTT16=
PLAYORDER=
